<svg width="60" height="39" viewBox="0 0 60 39" fill="none" xmlns="http://www.w3.org/2000/svg">
<rect width="60" height="39" rx="8" fill="black"/>
<path d="M17 10.5L8.70711 18.7929C8.31658 19.1834 8.31658 19.8166 8.70711 20.2071L17 28.5" stroke="#71F045" stroke-width="4" stroke-linecap="round"/>
<path d="M21.001 10.3514C21.001 9.04918 21.96 8.00102 23.3985 8.00102C24.773 8.00102 25.7959 8.89037 25.7959 10.3514V17.2131L33.6606 8.88934C34.0133 8.5082 34.6196 8 35.5157 8C36.7304 8 37.8822 8.92111 37.8822 10.2869C37.8822 11.1127 37.3708 11.7797 36.3148 12.8279L30.2712 18.7367L37.6564 26.3934C38.4236 27.1557 39 27.8545 39 28.8084C39 30.3012 37.8183 31 36.5066 31C35.5807 31 34.9723 30.4611 34.0762 29.5072L25.7949 20.6117V28.7121C25.7949 29.9518 24.8359 30.999 23.3975 30.999C22.0229 30.999 21 30.1107 21 28.7121V10.3514H21.001Z" fill="white"/>
<path d="M43 28.5L51.2929 20.2071C51.6834 19.8166 51.6834 19.1834 51.2929 18.7929L43 10.5" stroke="#71F045" stroke-width="4" stroke-linecap="round"/>
</svg>
